<?xml version="1.0" encoding="utf-8"?>
<!-- Generator: $$$/GeneralStr/196=Adobe Illustrator 27.6.0, SVG Export Plug-In . SVG Version: 6.00 Build 0)  -->
<svg version="1.1" id="Ebene_1" xmlns="http://www.w3.org/2000/svg" xmlns:xlink="http://www.w3.org/1999/xlink" x="0px" y="0px"
	 viewBox="0 0 283.5 104.2" style="enable-background:new 0 0 283.5 104.2;" xml:space="preserve">
<style type="text/css">
	.st0{fill:#CEB37E;}
	.st1{fill:#FFFFFF;}
</style>
<rect x="14.2" y="48.4" class="st0" width="54.4" height="4.6"/>
<rect x="68.5" y="31.2" class="st0" width="54.4" height="4.6"/>
<g>
	<path class="st1" d="M75.6,82.7c-2,0-3.6-0.8-4.9-2.3c-1.3-1.5-1.9-3.8-1.9-6.7c0-3,0.6-5.3,1.9-6.8c1.3-1.5,2.9-2.3,5-2.3
		c1.3,0,2.3,0.2,3.2,0.7c0.8,0.5,1.5,1.1,2,1.8h0.2c-0.1-0.3-0.1-0.8-0.2-1.4c-0.1-0.6-0.1-1.2-0.1-1.8V58h4.1v24.4h-3.2l-0.7-2.3
		h-0.2c-0.5,0.7-1.1,1.3-2,1.8C78,82.5,76.9,82.7,75.6,82.7z M76.9,79.4c1.5,0,2.6-0.4,3.2-1.3c0.6-0.9,0.9-2.2,0.9-3.9v-0.5
		c0-1.9-0.3-3.3-0.9-4.3c-0.6-1-1.7-1.5-3.3-1.5c-1.2,0-2.2,0.5-2.8,1.5c-0.7,1-1,2.4-1,4.3c0,1.8,0.3,3.2,1,4.2
		C74.6,78.9,75.6,79.4,76.9,79.4z"/>
	<path class="st1" d="M91.8,58.2c0.6,0,1.1,0.2,1.6,0.5c0.4,0.3,0.7,0.9,0.7,1.7c0,0.8-0.2,1.4-0.7,1.7c-0.5,0.3-1,0.5-1.6,0.5
		c-0.6,0-1.2-0.2-1.6-0.5c-0.4-0.3-0.7-0.9-0.7-1.7c0-0.8,0.2-1.3,0.7-1.7C90.7,58.4,91.2,58.2,91.8,58.2z M93.9,65v17.4h-4.1V65
		H93.9z"/>
	<path class="st1" d="M104.7,64.6c2.2,0,4,0.9,5.2,2.6h0.2l0.4-2.2h3.4v17.5c0,2.5-0.7,4.4-2.1,5.7c-1.4,1.3-3.5,1.9-6.3,1.9
		c-1.2,0-2.4-0.1-3.4-0.2c-1.1-0.2-2-0.4-3-0.8v-3.3c1,0.4,2,0.8,3.2,1c1.1,0.2,2.3,0.4,3.5,0.4c1.3,0,2.3-0.4,3-1.1
		s1.1-1.8,1.1-3.2v-0.4c0-0.3,0-0.7,0-1.1c0-0.4,0.1-0.8,0.1-1h-0.1c-0.6,0.9-1.3,1.6-2.2,2c-0.9,0.4-1.8,0.6-2.9,0.6
		c-2.1,0-3.8-0.8-5-2.4c-1.2-1.6-1.8-3.8-1.8-6.6c0-2.8,0.6-5,1.8-6.7C100.8,65.4,102.5,64.6,104.7,64.6z M105.8,67.9
		c-2.5,0-3.8,1.9-3.8,5.8c0,3.8,1.3,5.7,3.9,5.7c1.4,0,2.5-0.4,3.1-1.2c0.7-0.8,1-2.1,1-4v-0.6c0-2.1-0.3-3.5-1-4.4
		C108.3,68.4,107.2,67.9,105.8,67.9z"/>
	<path class="st1" d="M120.8,58.2c0.6,0,1.1,0.2,1.6,0.5c0.4,0.3,0.7,0.9,0.7,1.7c0,0.8-0.2,1.4-0.7,1.7c-0.5,0.3-1,0.5-1.6,0.5
		c-0.6,0-1.2-0.2-1.6-0.5c-0.4-0.3-0.7-0.9-0.7-1.7c0-0.8,0.2-1.3,0.7-1.7C119.6,58.4,120.2,58.2,120.8,58.2z M122.8,65v17.4h-4.1
		V65H122.8z"/>
	<path class="st1" d="M134.6,79.5c0.5,0,1,0,1.5-0.1c0.5-0.1,0.9-0.2,1.3-0.3v3c-0.4,0.2-1,0.4-1.7,0.5c-0.7,0.1-1.4,0.2-2.2,0.2
		c-1,0-1.9-0.2-2.7-0.5c-0.8-0.3-1.4-0.9-1.9-1.7c-0.5-0.8-0.7-2-0.7-3.4V68h-2.3v-1.8l2.6-1.4l1.3-3.7h2.5V65h5V68h-5v9
		c0,0.8,0.2,1.4,0.7,1.8C133.3,79.3,133.9,79.5,134.6,79.5z"/>
	<path class="st1" d="M147.6,64.6c2.2,0,4,0.5,5.1,1.5c1.2,1,1.8,2.5,1.8,4.6v11.7h-2.9l-0.8-2.4h-0.1c-0.8,0.9-1.5,1.6-2.4,2.1
		c-0.8,0.4-2,0.7-3.4,0.7c-1.6,0-2.9-0.4-3.9-1.3c-1-0.9-1.5-2.2-1.5-4.1c0-1.8,0.7-3.1,2-4c1.3-0.9,3.3-1.4,6-1.5l3-0.1v-0.9
		c0-1.1-0.3-1.9-0.8-2.4c-0.5-0.5-1.3-0.7-2.2-0.7c-0.9,0-1.7,0.1-2.5,0.4c-0.8,0.2-1.6,0.6-2.4,0.9l-1.3-2.8
		c0.9-0.4,1.8-0.8,2.9-1.1S146.4,64.6,147.6,64.6z M150.5,74.2l-2.1,0.1c-1.8,0.1-3,0.4-3.7,0.9c-0.7,0.5-1,1.3-1,2.2
		c0,0.8,0.2,1.4,0.7,1.8c0.5,0.4,1.1,0.5,1.9,0.5c1.2,0,2.2-0.3,3-1c0.8-0.7,1.2-1.7,1.2-3V74.2z"/>
	<path class="st1" d="M163.4,82.4h-4.1V58h4.1V82.4z"/>
	<path class="st1" d="M185.7,64.6c0.3,0,0.6,0,0.9,0c0.3,0,0.6,0.1,0.8,0.1l-0.4,3.8c-0.2,0-0.5-0.1-0.8-0.1c-0.3,0-0.6,0-0.8,0
		c-0.9,0-1.7,0.2-2.4,0.5c-0.8,0.4-1.4,0.9-1.8,1.6c-0.5,0.7-0.7,1.7-0.7,2.8v9h-4.1V65h3.1l0.6,3h0.2c0.5-0.9,1.2-1.7,2.1-2.4
		C183.5,65,184.5,64.6,185.7,64.6z"/>
	<path class="st1" d="M196.8,64.6c2.2,0,4,0.5,5.1,1.5c1.2,1,1.8,2.5,1.8,4.6v11.7h-2.9L200,80h-0.1c-0.8,0.9-1.5,1.6-2.4,2.1
		c-0.8,0.4-2,0.7-3.4,0.7c-1.6,0-2.9-0.4-3.9-1.3c-1-0.9-1.5-2.2-1.5-4.1c0-1.8,0.7-3.1,2-4c1.3-0.9,3.3-1.4,6-1.5l3-0.1v-0.9
		c0-1.1-0.3-1.9-0.8-2.4c-0.5-0.5-1.3-0.7-2.2-0.7c-0.9,0-1.7,0.1-2.5,0.4c-0.8,0.2-1.6,0.6-2.4,0.9l-1.3-2.8
		c0.9-0.4,1.8-0.8,2.9-1.1S195.6,64.6,196.8,64.6z M199.6,74.2l-2.1,0.1c-1.8,0.1-3,0.4-3.7,0.9c-0.7,0.5-1,1.3-1,2.2
		c0,0.8,0.2,1.4,0.7,1.8c0.5,0.4,1.1,0.5,1.9,0.5c1.2,0,2.2-0.3,3-1c0.8-0.7,1.2-1.7,1.2-3V74.2z"/>
	<path class="st1" d="M217.7,64.6c2,0,3.7,0.8,4.9,2.3c1.2,1.5,1.9,3.8,1.9,6.7c0,3-0.6,5.2-1.9,6.8c-1.3,1.5-2.9,2.3-5,2.3
		c-1.3,0-2.3-0.2-3.1-0.7s-1.4-1-1.9-1.6h-0.3c0.1,0.4,0.1,0.8,0.2,1.3c0.1,0.5,0.1,0.9,0.1,1.3v7.1h-4.1V65h3.3l0.6,2.3h0.2
		c0.5-0.7,1.1-1.3,1.9-1.9C215.3,64.9,216.4,64.6,217.7,64.6z M216.6,67.9c-1.4,0-2.4,0.4-3,1.3c-0.6,0.9-0.9,2.2-0.9,3.9v0.5
		c0,1.9,0.3,3.3,0.9,4.3c0.6,1,1.6,1.5,3.2,1.5c1.3,0,2.2-0.5,2.8-1.6c0.6-1,0.9-2.5,0.9-4.3c0-1.8-0.3-3.2-0.9-4.2
		C218.8,68.4,217.9,67.9,216.6,67.9z"/>
	<path class="st1" d="M230.5,58.2c0.6,0,1.1,0.2,1.6,0.5c0.4,0.3,0.7,0.9,0.7,1.7c0,0.8-0.2,1.4-0.7,1.7c-0.5,0.3-1,0.5-1.6,0.5
		c-0.6,0-1.2-0.2-1.6-0.5c-0.4-0.3-0.7-0.9-0.7-1.7c0-0.8,0.2-1.3,0.7-1.7C229.3,58.4,229.9,58.2,230.5,58.2z M232.5,65v17.4h-4.1
		V65H232.5z"/>
	<path class="st1" d="M243.3,82.7c-2,0-3.6-0.8-4.9-2.3c-1.3-1.5-1.9-3.8-1.9-6.7c0-3,0.6-5.3,1.9-6.8c1.3-1.5,2.9-2.3,5-2.3
		c1.3,0,2.3,0.2,3.2,0.7c0.8,0.5,1.5,1.1,2,1.8h0.2c-0.1-0.3-0.1-0.8-0.2-1.4c-0.1-0.6-0.1-1.2-0.1-1.8V58h4.1v24.4h-3.2l-0.7-2.3
		h-0.2c-0.5,0.7-1.1,1.3-2,1.8S244.6,82.7,243.3,82.7z M244.5,79.4c1.5,0,2.6-0.4,3.2-1.3c0.6-0.9,0.9-2.2,0.9-3.9v-0.5
		c0-1.9-0.3-3.3-0.9-4.3s-1.7-1.5-3.3-1.5c-1.2,0-2.2,0.5-2.8,1.5c-0.7,1-1,2.4-1,4.3c0,1.8,0.3,3.2,1,4.2
		C242.3,78.9,243.2,79.4,244.5,79.4z"/>
	<path class="st1" d="M269.3,77.3c0,1.8-0.6,3.1-1.9,4c-1.3,0.9-3,1.4-5.4,1.4c-1.2,0-2.3-0.1-3.1-0.3c-0.9-0.2-1.7-0.4-2.5-0.8
		v-3.4c0.9,0.4,1.8,0.8,2.8,1c1,0.3,2,0.4,2.9,0.4c1.1,0,1.9-0.2,2.4-0.5c0.5-0.3,0.7-0.8,0.7-1.4c0-0.3-0.1-0.6-0.3-0.9
		c-0.2-0.3-0.6-0.6-1.1-0.9c-0.6-0.3-1.4-0.7-2.5-1.2c-1.1-0.5-2-0.9-2.8-1.4c-0.7-0.4-1.3-1-1.7-1.6c-0.4-0.6-0.6-1.4-0.6-2.4
		c0-1.6,0.6-2.7,1.9-3.6c1.2-0.8,2.9-1.2,4.9-1.2c1.1,0,2.1,0.1,3,0.3c1,0.2,1.9,0.5,2.9,1l-1.3,3c-0.8-0.3-1.6-0.6-2.4-0.9
		c-0.8-0.2-1.6-0.4-2.4-0.4c-1.8,0-2.7,0.5-2.7,1.5c0,0.4,0.1,0.7,0.3,0.9c0.2,0.3,0.6,0.5,1.2,0.8c0.6,0.3,1.4,0.6,2.4,1
		c1,0.4,1.9,0.8,2.7,1.3c0.8,0.4,1.3,1,1.7,1.6C269.1,75.5,269.3,76.3,269.3,77.3z"/>
</g>
<rect x="39.1" y="14.2" class="st0" width="54.4" height="4.4"/>
</svg>
