<?xml version="1.0" encoding="UTF-8"?>
<svg width="256px" height="77px" viewBox="0 0 256 77" version="1.1" xmlns="http://www.w3.org/2000/svg" xmlns:xlink="http://www.w3.org/1999/xlink">
    <!-- Generator: Sketch 58 (84663) - https://sketch.com -->
    <title>logo_white_typo</title>
    <desc>Created with Sketch.</desc>
    <g id="Page-1" stroke="none" stroke-width="1" fill="none" fill-rule="evenodd">
        <g id="logo_white_typo" fill-rule="nonzero">
            <rect id="Rectangle" fill="#CEB37E" x="0.2" y="34.4" width="54.4" height="4.6"></rect>
            <rect id="Rectangle" fill="#CEB37E" x="54.5" y="17.2" width="54.4" height="4.6"></rect>
            <g id="Group" transform="translate(54.000000, 44.000000)" fill="#FFFFFF">
                <path d="M7.6,24.7 C5.6,24.7 4,23.9 2.7,22.4 C1.4,20.9 0.8,18.6 0.8,15.7 C0.8,12.7 1.4,10.4 2.7,8.9 C4,7.4 5.6,6.6 7.7,6.6 C9,6.6 10,6.8 10.9,7.3 C11.7,7.8 12.4,8.4 12.9,9.1 L13.1,9.1 C13,8.8 13,8.3 12.9,7.7 C12.8,7.1 12.8,6.5 12.8,5.9 L12.8,0 L16.9,0 L16.9,24.4 L13.7,24.4 L13,22.1 L12.8,22.1 C12.3,22.8 11.7,23.4 10.8,23.9 C10,24.5 8.9,24.7 7.6,24.7 Z M8.9,21.4 C10.4,21.4 11.5,21 12.1,20.1 C12.7,19.2 13,17.9 13,16.2 L13,15.7 C13,13.8 12.7,12.4 12.1,11.4 C11.5,10.4 10.4,9.9 8.8,9.9 C7.6,9.9 6.6,10.4 6,11.4 C5.3,12.4 5,13.8 5,15.7 C5,17.5 5.3,18.9 6,19.9 C6.6,20.9 7.6,21.4 8.9,21.4 Z" id="Shape"></path>
                <path d="M23.8,0.2 C24.4,0.2 24.9,0.4 25.4,0.7 C25.8,1 26.1,1.6 26.1,2.4 C26.1,3.2 25.9,3.8 25.4,4.1 C24.9,4.4 24.4,4.6 23.8,4.6 C23.2,4.6 22.6,4.4 22.2,4.1 C21.8,3.8 21.5,3.2 21.5,2.4 C21.5,1.6 21.7,1.1 22.2,0.7 C22.7,0.4 23.2,0.2 23.8,0.2 Z M25.9,7 L25.9,24.4 L21.8,24.4 L21.8,7 L25.9,7 Z" id="Shape"></path>
                <path d="M36.7,6.6 C38.9,6.6 40.7,7.5 41.9,9.2 L42.1,9.2 L42.5,7 L45.9,7 L45.9,24.5 C45.9,27 45.2,28.9 43.8,30.2 C42.4,31.5 40.3,32.1 37.5,32.1 C36.3,32.1 35.1,32 34.1,31.9 C33,31.7 32.1,31.5 31.1,31.1 L31.1,27.8 C32.1,28.2 33.1,28.6 34.3,28.8 C35.4,29 36.6,29.2 37.8,29.2 C39.1,29.2 40.1,28.8 40.8,28.1 C41.5,27.4 41.9,26.3 41.9,24.9 L41.9,24.5 C41.9,24.2 41.9,23.8 41.9,23.4 C41.9,23 42,22.6 42,22.4 L41.9,22.4 C41.3,23.3 40.6,24 39.7,24.4 C38.8,24.8 37.9,25 36.8,25 C34.7,25 33,24.2 31.8,22.6 C30.6,21 30,18.8 30,16 C30,13.2 30.6,11 31.8,9.3 C32.8,7.4 34.5,6.6 36.7,6.6 Z M37.8,9.9 C35.3,9.9 34,11.8 34,15.7 C34,19.5 35.3,21.4 37.9,21.4 C39.3,21.4 40.4,21 41,20.2 C41.7,19.4 42,18.1 42,16.2 L42,15.6 C42,13.5 41.7,12.1 41,11.2 C40.3,10.4 39.2,9.9 37.8,9.9 Z" id="Shape"></path>
                <path d="M52.8,0.2 C53.4,0.2 53.9,0.4 54.4,0.7 C54.8,1 55.1,1.6 55.1,2.4 C55.1,3.2 54.9,3.8 54.4,4.1 C53.9,4.4 53.4,4.6 52.8,4.6 C52.2,4.6 51.6,4.4 51.2,4.1 C50.8,3.8 50.5,3.2 50.5,2.4 C50.5,1.6 50.7,1.1 51.2,0.7 C51.6,0.4 52.2,0.2 52.8,0.2 Z M54.8,7 L54.8,24.4 L50.7,24.4 L50.7,7 L54.8,7 Z" id="Shape"></path>
                <path d="M66.6,21.5 C67.1,21.5 67.6,21.5 68.1,21.4 C68.6,21.3 69,21.2 69.4,21.1 L69.4,24.1 C69,24.3 68.4,24.5 67.7,24.6 C67,24.7 66.3,24.8 65.5,24.8 C64.5,24.8 63.6,24.6 62.8,24.3 C62,24 61.4,23.4 60.9,22.6 C60.4,21.8 60.2,20.6 60.2,19.2 L60.2,10 L57.9,10 L57.9,8.2 L60.5,6.8 L61.8,3.1 L64.3,3.1 L64.3,7 L69.3,7 L69.3,10 L64.3,10 L64.3,19 C64.3,19.8 64.5,20.4 65,20.8 C65.3,21.3 65.9,21.5 66.6,21.5 Z" id="Path"></path>
                <path d="M79.6,6.6 C81.8,6.6 83.6,7.1 84.7,8.1 C85.9,9.1 86.5,10.6 86.5,12.7 L86.5,24.4 L83.6,24.4 L82.8,22 L82.7,22 C81.9,22.9 81.2,23.6 80.3,24.1 C79.5,24.5 78.3,24.8 76.9,24.8 C75.3,24.8 74,24.4 73,23.5 C72,22.6 71.5,21.3 71.5,19.4 C71.5,17.6 72.2,16.3 73.5,15.4 C74.8,14.5 76.8,14 79.5,13.9 L82.5,13.8 L82.5,12.9 C82.5,11.8 82.2,11 81.7,10.5 C81.2,10 80.4,9.8 79.5,9.8 C78.6,9.8 77.8,9.9 77,10.2 C76.2,10.4 75.4,10.8 74.6,11.1 L73.3,8.3 C74.2,7.9 75.1,7.5 76.2,7.2 C77.3,6.9 78.4,6.6 79.6,6.6 Z M82.5,16.2 L80.4,16.3 C78.6,16.4 77.4,16.7 76.7,17.2 C76,17.7 75.7,18.5 75.7,19.4 C75.7,20.2 75.9,20.8 76.4,21.2 C76.9,21.6 77.5,21.7 78.3,21.7 C79.5,21.7 80.5,21.4 81.3,20.7 C82.1,20 82.5,19 82.5,17.7 L82.5,16.2 Z" id="Shape"></path>
                <polygon id="Path" points="95.4 24.4 91.3 24.4 91.3 0 95.4 0"></polygon>
                <path d="M117.7,6.6 C118,6.6 118.3,6.6 118.6,6.6 C118.9,6.6 119.2,6.7 119.4,6.7 L119,10.5 C118.8,10.5 118.5,10.4 118.2,10.4 C117.9,10.4 117.6,10.4 117.4,10.4 C116.5,10.4 115.7,10.6 115,10.9 C114.2,11.3 113.6,11.8 113.2,12.5 C112.7,13.2 112.5,14.2 112.5,15.3 L112.5,24.3 L108.4,24.3 L108.4,7 L111.5,7 L112.1,10 L112.3,10 C112.8,9.1 113.5,8.3 114.4,7.6 C115.5,7 116.5,6.6 117.7,6.6 Z" id="Path"></path>
                <path d="M128.8,6.6 C131,6.6 132.8,7.1 133.9,8.1 C135.1,9.1 135.7,10.6 135.7,12.7 L135.7,24.4 L132.8,24.4 L132,22 L131.9,22 C131.1,22.9 130.4,23.6 129.5,24.1 C128.7,24.5 127.5,24.8 126.1,24.8 C124.5,24.8 123.2,24.4 122.2,23.5 C121.2,22.6 120.7,21.3 120.7,19.4 C120.7,17.6 121.4,16.3 122.7,15.4 C124,14.5 126,14 128.7,13.9 L131.7,13.8 L131.7,12.9 C131.7,11.8 131.4,11 130.9,10.5 C130.4,10 129.6,9.8 128.7,9.8 C127.8,9.8 127,9.9 126.2,10.2 C125.4,10.4 124.6,10.8 123.8,11.1 L122.5,8.3 C123.4,7.9 124.3,7.5 125.4,7.2 C126.5,6.9 127.6,6.6 128.8,6.6 Z M131.6,16.2 L129.5,16.3 C127.7,16.4 126.5,16.7 125.8,17.2 C125.1,17.7 124.8,18.5 124.8,19.4 C124.8,20.2 125,20.8 125.5,21.2 C126,21.6 126.6,21.7 127.4,21.7 C128.6,21.7 129.6,21.4 130.4,20.7 C131.2,20 131.6,19 131.6,17.7 L131.6,16.2 Z" id="Shape"></path>
                <path d="M149.7,6.6 C151.7,6.6 153.4,7.4 154.6,8.9 C155.8,10.4 156.5,12.7 156.5,15.6 C156.5,18.6 155.9,20.8 154.6,22.4 C153.3,23.9 151.7,24.7 149.6,24.7 C148.3,24.7 147.3,24.5 146.5,24 C145.7,23.5 145.1,23 144.6,22.4 L144.3,22.4 C144.4,22.8 144.4,23.2 144.5,23.7 C144.6,24.2 144.6,24.6 144.6,25 L144.6,32.1 L140.5,32.1 L140.5,7 L143.8,7 L144.4,9.3 L144.6,9.3 C145.1,8.6 145.7,8 146.5,7.4 C147.3,6.9 148.4,6.6 149.7,6.6 Z M148.6,9.9 C147.2,9.9 146.2,10.3 145.6,11.2 C145,12.1 144.7,13.4 144.7,15.1 L144.7,15.6 C144.7,17.5 145,18.9 145.6,19.9 C146.2,20.9 147.2,21.4 148.8,21.4 C150.1,21.4 151,20.9 151.6,19.8 C152.2,18.8 152.5,17.3 152.5,15.5 C152.5,13.7 152.2,12.3 151.6,11.3 C150.8,10.4 149.9,9.9 148.6,9.9 Z" id="Shape"></path>
                <path d="M162.5,0.2 C163.1,0.2 163.6,0.4 164.1,0.7 C164.5,1 164.8,1.6 164.8,2.4 C164.8,3.2 164.6,3.8 164.1,4.1 C163.6,4.4 163.1,4.6 162.5,4.6 C161.9,4.6 161.3,4.4 160.9,4.1 C160.5,3.8 160.2,3.2 160.2,2.4 C160.2,1.6 160.4,1.1 160.9,0.7 C161.3,0.4 161.9,0.2 162.5,0.2 Z M164.5,7 L164.5,24.4 L160.4,24.4 L160.4,7 L164.5,7 Z" id="Shape"></path>
                <path d="M175.3,24.7 C173.3,24.7 171.7,23.9 170.4,22.4 C169.1,20.9 168.5,18.6 168.5,15.7 C168.5,12.7 169.1,10.4 170.4,8.9 C171.7,7.4 173.3,6.6 175.4,6.6 C176.7,6.6 177.7,6.8 178.6,7.3 C179.4,7.8 180.1,8.4 180.6,9.1 L180.8,9.1 C180.7,8.8 180.7,8.3 180.6,7.7 C180.5,7.1 180.5,6.5 180.5,5.9 L180.5,0 L184.6,0 L184.6,24.4 L181.4,24.4 L180.7,22.1 L180.5,22.1 C180,22.8 179.4,23.4 178.5,23.9 C177.6,24.4 176.6,24.7 175.3,24.7 Z M176.5,21.4 C178,21.4 179.1,21 179.7,20.1 C180.3,19.2 180.6,17.9 180.6,16.2 L180.6,15.7 C180.6,13.8 180.3,12.4 179.7,11.4 C179.1,10.4 178,9.9 176.4,9.9 C175.2,9.9 174.2,10.4 173.6,11.4 C172.9,12.4 172.6,13.8 172.6,15.7 C172.6,17.5 172.9,18.9 173.6,19.9 C174.3,20.9 175.2,21.4 176.5,21.4 Z" id="Shape"></path>
                <path d="M201.3,19.3 C201.3,21.1 200.7,22.4 199.4,23.3 C198.1,24.2 196.4,24.7 194,24.7 C192.8,24.7 191.7,24.6 190.9,24.4 C190,24.2 189.2,24 188.4,23.6 L188.4,20.2 C189.3,20.6 190.2,21 191.2,21.2 C192.2,21.5 193.2,21.6 194.1,21.6 C195.2,21.6 196,21.4 196.5,21.1 C197,20.8 197.2,20.3 197.2,19.7 C197.2,19.4 197.1,19.1 196.9,18.8 C196.7,18.5 196.3,18.2 195.8,17.9 C195.2,17.6 194.4,17.2 193.3,16.7 C192.2,16.2 191.3,15.8 190.5,15.3 C189.8,14.9 189.2,14.3 188.8,13.7 C188.4,13.1 188.2,12.3 188.2,11.3 C188.2,9.7 188.8,8.6 190.1,7.7 C191.3,6.9 193,6.5 195,6.5 C196.1,6.5 197.1,6.6 198,6.8 C199,7 199.9,7.3 200.9,7.8 L199.6,10.8 C198.8,10.5 198,10.2 197.2,9.9 C196.4,9.7 195.6,9.5 194.8,9.5 C193,9.5 192.1,10 192.1,11 C192.1,11.4 192.2,11.7 192.4,11.9 C192.6,12.2 193,12.4 193.6,12.7 C194.2,13 195,13.3 196,13.7 C197,14.1 197.9,14.5 198.7,15 C199.5,15.4 200,16 200.4,16.6 C201.1,17.5 201.3,18.3 201.3,19.3 Z" id="Path"></path>
            </g>
            <rect id="Rectangle" fill="#CEB37E" x="25.1" y="0.2" width="54.4" height="4.4"></rect>
        </g>
    </g>
</svg>