<?xml version="1.0" encoding="UTF-8"?>
<svg width="1760px" height="153px" viewBox="0 0 1760 153" version="1.1"
    xmlns="http://www.w3.org/2000/svg">
    <g fill="#CEB37E">
        <path d="M1759.4,152.8 C1740.5,152.6 1721.6,148.7 1703,144.5 C1646.4,131.6 1590.7,113 1535.1,94.7 C1475.4,75.1 1415.8,54.6 1355.9,36 C1311.8,22.3 1267,7.9 1221.8,2.1 C1198.9,-0.8 1175.9,0.9 1155.2,14.4 C1123.2,35.3 1105.1,76.2 1079.8,106.7 C1067.2,121.9 1052.6,134.1 1035.6,140.2 C1013.8,148.1 990.7,145.5 968.6,140.3 C938.1,133.1 908.4,120.9 879.2,108.1 C845.9,93.5 813.1,77.5 780.1,61.9 C748.4,46.9 716.5,32.1 684,20 C658,10.3 630.9,1.3 603.6,0.7 C563.1,-0.2 526.8,18.7 492.2,43.1 C457.4,67.6 423.2,93.2 382.8,99.2 C356.2,103.2 329.3,98.9 303.2,92.4 C269.6,84.1 236.6,71.9 203.8,59.4 C168.7,46.1 133.7,32.1 98.2,20.5 C66.3,10.1 33.5,0.9 0.3,0.7 C0.3,0.5 0.3,0.4 0.3,0.2 C33.4,0.4 66.3,9.6 98.2,20 C133.7,31.6 168.7,45.6 203.8,58.9 C236.6,71.3 269.5,83.5 303.2,91.9 C329.3,98.4 356.2,102.6 382.8,98.7 C423.2,92.7 457.5,67.1 492.2,42.6 C508.7,31 525.5,20 543.5,12.3 C562.8,4 583.2,-0.2 603.7,0.2 C631,0.8 658.1,9.8 684.1,19.4 C716.6,31.5 748.5,46.4 780.2,61.4 C813.2,77 846,93 879.3,107.6 C908.5,120.4 938.2,132.6 968.7,139.8 C990.7,145 1013.8,147.6 1035.7,139.7 C1052.6,133.6 1067.3,121.4 1079.8,106.2 C1105.1,75.7 1123.1,34.8 1155.1,13.9 C1175.9,0.3 1198.8,-1.3 1221.8,1.6 C1267.1,7.3 1311.9,21.8 1355.9,35.5 C1415.9,54.1 1475.5,74.6 1535.2,94.2 C1590.8,112.5 1646.5,131.1 1703.1,144 C1721.7,148.2 1740.6,152.1 1759.5,152.3 C1759.4,152.5 1759.4,152.6 1759.4,152.8 Z"></path>
    </g>
</svg>