<?xml version="1.0" encoding="UTF-8"?>
<svg width="1514px" height="537px" viewBox="0 0 1514 537" version="1.1"
    xmlns="http://www.w3.org/2000/svg">
    <defs>
        <linearGradient x1="50.004264%" y1="99.9990887%" x2="50.004264%" y2="-0.0377631686%" id="linearGradient-1">
            <stop stop-color="#33CCCC" offset="0.4663507%"></stop>
            <stop stop-color="#3ACBC8" offset="12.73%"></stop>
            <stop stop-color="#4EC8BF" offset="30.61%"></stop>
            <stop stop-color="#6DC3AF" offset="51.95%"></stop>
            <stop stop-color="#9ABB98" offset="75.94%"></stop>
            <stop stop-color="#CEB37E" offset="100%"></stop>
        </linearGradient>
        <linearGradient x1="49.9930906%" y1="100.011508%" x2="49.9930906%" y2="0.0522486772%" id="linearGradient-2">
            <stop stop-color="#33CCCC" offset="0.4663507%"></stop>
            <stop stop-color="#3ACBC8" offset="12.73%"></stop>
            <stop stop-color="#4EC8BF" offset="30.61%"></stop>
            <stop stop-color="#6DC3AF" offset="51.95%"></stop>
            <stop stop-color="#9ABB98" offset="75.94%"></stop>
            <stop stop-color="#CEB37E" offset="100%"></stop>
        </linearGradient>
        <linearGradient x1="50.0063941%" y1="99.9961057%" x2="50.0063941%" y2="-0.0441585535%" id="linearGradient-3">
            <stop stop-color="#33CCCC" offset="0.4663507%"></stop>
            <stop stop-color="#3ACBC8" offset="12.73%"></stop>
            <stop stop-color="#4EC8BF" offset="30.61%"></stop>
            <stop stop-color="#6DC3AF" offset="51.95%"></stop>
            <stop stop-color="#9ABB98" offset="75.94%"></stop>
            <stop stop-color="#CEB37E" offset="100%"></stop>
        </linearGradient>
        <linearGradient x1="50.00549%" y1="100.01153%" x2="50.00549%" y2="-0.00452147702%" id="linearGradient-4">
            <stop stop-color="#33CCCC" offset="0.4663507%"></stop>
            <stop stop-color="#3ACBC8" offset="12.73%"></stop>
            <stop stop-color="#4EC8BF" offset="30.61%"></stop>
            <stop stop-color="#6DC3AF" offset="51.95%"></stop>
            <stop stop-color="#9ABB98" offset="75.94%"></stop>
            <stop stop-color="#CEB37E" offset="100%"></stop>
        </linearGradient>
        <linearGradient x1="49.9996208%" y1="99.9813142%" x2="49.9996208%" y2="0.0419711175%" id="linearGradient-5">
            <stop stop-color="#33CCCC" offset="0.4663507%"></stop>
            <stop stop-color="#3ACBC8" offset="12.73%"></stop>
            <stop stop-color="#4EC8BF" offset="30.61%"></stop>
            <stop stop-color="#6DC3AF" offset="51.95%"></stop>
            <stop stop-color="#9ABB98" offset="75.94%"></stop>
            <stop stop-color="#CEB37E" offset="100%"></stop>
        </linearGradient>
        <linearGradient x1="50.0013694%" y1="100.091129%" x2="50.0013694%" y2="0.00806451613%" id="linearGradient-6">
            <stop stop-color="#33CCCC" offset="0.4663507%"></stop>
            <stop stop-color="#3ACBC8" offset="12.73%"></stop>
            <stop stop-color="#4EC8BF" offset="30.61%"></stop>
            <stop stop-color="#6DC3AF" offset="51.95%"></stop>
            <stop stop-color="#9ABB98" offset="75.94%"></stop>
            <stop stop-color="#CEB37E" offset="100%"></stop>
        </linearGradient>
        <linearGradient x1="49.9939917%" y1="100.033499%" x2="49.9939917%" y2="-0.0336365183%" id="linearGradient-7">
            <stop stop-color="#33CCCC" offset="0.4663507%"></stop>
            <stop stop-color="#3ACBC8" offset="12.73%"></stop>
            <stop stop-color="#4EC8BF" offset="30.61%"></stop>
            <stop stop-color="#6DC3AF" offset="51.95%"></stop>
            <stop stop-color="#9ABB98" offset="75.94%"></stop>
            <stop stop-color="#CEB37E" offset="100%"></stop>
        </linearGradient>
        <linearGradient x1="49.9841556%" y1="100.012497%" x2="49.9841556%" y2="-0.0871361814%" id="linearGradient-8">
            <stop stop-color="#33CCCC" offset="0.4663507%"></stop>
            <stop stop-color="#3ACBC8" offset="12.73%"></stop>
            <stop stop-color="#4EC8BF" offset="30.61%"></stop>
            <stop stop-color="#6DC3AF" offset="51.95%"></stop>
            <stop stop-color="#9ABB98" offset="75.94%"></stop>
            <stop stop-color="#CEB37E" offset="100%"></stop>
        </linearGradient>
        <linearGradient x1="49.9852693%" y1="100.032939%" x2="49.9852693%" y2="0.231410877%" id="linearGradient-9">
            <stop stop-color="#33CCCC" offset="0.4663507%"></stop>
            <stop stop-color="#3ACBC8" offset="12.73%"></stop>
            <stop stop-color="#4EC8BF" offset="30.61%"></stop>
            <stop stop-color="#6DC3AF" offset="51.95%"></stop>
            <stop stop-color="#9ABB98" offset="75.94%"></stop>
            <stop stop-color="#CEB37E" offset="100%"></stop>
        </linearGradient>
        <linearGradient x1="50.0148893%" y1="99.9504108%" x2="50.0148893%" y2="0.362793982%" id="linearGradient-10">
            <stop stop-color="#33CCCC" offset="0.4663507%"></stop>
            <stop stop-color="#3ACBC8" offset="12.73%"></stop>
            <stop stop-color="#4EC8BF" offset="30.61%"></stop>
            <stop stop-color="#6DC3AF" offset="51.95%"></stop>
            <stop stop-color="#9ABB98" offset="75.94%"></stop>
            <stop stop-color="#CEB37E" offset="100%"></stop>
        </linearGradient>
        <linearGradient x1="49.997875%" y1="99.9939557%" x2="49.997875%" y2="0.175276443%" id="linearGradient-11">
            <stop stop-color="#33CCCC" offset="0.4663507%"></stop>
            <stop stop-color="#3ACBC8" offset="12.73%"></stop>
            <stop stop-color="#4EC8BF" offset="30.61%"></stop>
            <stop stop-color="#6DC3AF" offset="51.95%"></stop>
            <stop stop-color="#9ABB98" offset="75.94%"></stop>
            <stop stop-color="#CEB37E" offset="100%"></stop>
        </linearGradient>
        <linearGradient x1="50.0019673%" y1="99.9171392%" x2="50.0019673%" y2="-0.069921894%" id="linearGradient-12">
            <stop stop-color="#33CCCC" offset="0.4663507%"></stop>
            <stop stop-color="#3ACBC8" offset="12.73%"></stop>
            <stop stop-color="#4EC8BF" offset="30.61%"></stop>
            <stop stop-color="#6DC3AF" offset="51.95%"></stop>
            <stop stop-color="#9ABB98" offset="75.94%"></stop>
            <stop stop-color="#CEB37E" offset="100%"></stop>
        </linearGradient>
        <linearGradient x1="49.9993085%" y1="99.9591637%" x2="49.9993085%" y2="0.0368049523%" id="linearGradient-13">
            <stop stop-color="#33CCCC" offset="0.4663507%"></stop>
            <stop stop-color="#3ACBC8" offset="12.73%"></stop>
            <stop stop-color="#4EC8BF" offset="30.61%"></stop>
            <stop stop-color="#6DC3AF" offset="51.95%"></stop>
            <stop stop-color="#9ABB98" offset="75.94%"></stop>
            <stop stop-color="#CEB37E" offset="100%"></stop>
        </linearGradient>
        <linearGradient x1="49.9869651%" y1="100.00317%" x2="49.9869651%" y2="-0.26682763%" id="linearGradient-14">
            <stop stop-color="#33CCCC" offset="0.4663507%"></stop>
            <stop stop-color="#3ACBC8" offset="12.73%"></stop>
            <stop stop-color="#4EC8BF" offset="30.61%"></stop>
            <stop stop-color="#6DC3AF" offset="51.95%"></stop>
            <stop stop-color="#9ABB98" offset="75.94%"></stop>
            <stop stop-color="#CEB37E" offset="100%"></stop>
        </linearGradient>
        <linearGradient x1="49.9935684%" y1="99.9996245%" x2="49.9935684%" y2="0.260311645%" id="linearGradient-15">
            <stop stop-color="#33CCCC" offset="0.4663507%"></stop>
            <stop stop-color="#3ACBC8" offset="12.73%"></stop>
            <stop stop-color="#4EC8BF" offset="30.61%"></stop>
            <stop stop-color="#6DC3AF" offset="51.95%"></stop>
            <stop stop-color="#9ABB98" offset="75.94%"></stop>
            <stop stop-color="#CEB37E" offset="100%"></stop>
        </linearGradient>
        <linearGradient x1="49.9968698%" y1="100.175417%" x2="49.9968698%" y2="0.181805778%" id="linearGradient-16">
            <stop stop-color="#33CCCC" offset="0.4663507%"></stop>
            <stop stop-color="#3ACBC8" offset="12.73%"></stop>
            <stop stop-color="#4EC8BF" offset="30.61%"></stop>
            <stop stop-color="#6DC3AF" offset="51.95%"></stop>
            <stop stop-color="#9ABB98" offset="75.94%"></stop>
            <stop stop-color="#CEB37E" offset="100%"></stop>
        </linearGradient>
        <linearGradient x1="49.9968698%" y1="99.9697036%" x2="49.9968698%" y2="-0.425116707%" id="linearGradient-17">
            <stop stop-color="#33CCCC" offset="0.4663507%"></stop>
            <stop stop-color="#3ACBC8" offset="12.73%"></stop>
            <stop stop-color="#4EC8BF" offset="30.61%"></stop>
            <stop stop-color="#6DC3AF" offset="51.95%"></stop>
            <stop stop-color="#9ABB98" offset="75.94%"></stop>
            <stop stop-color="#CEB37E" offset="100%"></stop>
        </linearGradient>
        <linearGradient x1="49.9968703%" y1="100.029315%" x2="49.9968703%" y2="0.354523844%" id="linearGradient-18">
            <stop stop-color="#33CCCC" offset="0.4663507%"></stop>
            <stop stop-color="#3ACBC8" offset="12.73%"></stop>
            <stop stop-color="#4EC8BF" offset="30.61%"></stop>
            <stop stop-color="#6DC3AF" offset="51.95%"></stop>
            <stop stop-color="#9ABB98" offset="75.94%"></stop>
            <stop stop-color="#CEB37E" offset="100%"></stop>
        </linearGradient>
        <linearGradient x1="49.9935676%" y1="99.9264012%" x2="49.9935676%" y2="-0.0841823364%" id="linearGradient-19">
            <stop stop-color="#33CCCC" offset="0.4663507%"></stop>
            <stop stop-color="#3ACBC8" offset="12.73%"></stop>
            <stop stop-color="#4EC8BF" offset="30.61%"></stop>
            <stop stop-color="#6DC3AF" offset="51.95%"></stop>
            <stop stop-color="#9ABB98" offset="75.94%"></stop>
            <stop stop-color="#CEB37E" offset="100%"></stop>
        </linearGradient>
        <linearGradient x1="49.9935684%" y1="99.9726489%" x2="49.9935684%" y2="-0.0485941865%" id="linearGradient-20">
            <stop stop-color="#33CCCC" offset="0.4663507%"></stop>
            <stop stop-color="#3ACBC8" offset="12.73%"></stop>
            <stop stop-color="#4EC8BF" offset="30.61%"></stop>
            <stop stop-color="#6DC3AF" offset="51.95%"></stop>
            <stop stop-color="#9ABB98" offset="75.94%"></stop>
            <stop stop-color="#CEB37E" offset="100%"></stop>
        </linearGradient>
        <linearGradient x1="49.9968703%" y1="99.8939524%" x2="49.9968703%" y2="0.00134188072%" id="linearGradient-21">
            <stop stop-color="#33CCCC" offset="0.4663507%"></stop>
            <stop stop-color="#3ACBC8" offset="12.73%"></stop>
            <stop stop-color="#4EC8BF" offset="30.61%"></stop>
            <stop stop-color="#6DC3AF" offset="51.95%"></stop>
            <stop stop-color="#9ABB98" offset="75.94%"></stop>
            <stop stop-color="#CEB37E" offset="100%"></stop>
        </linearGradient>
        <linearGradient x1="50.0034731%" y1="99.9380778%" x2="50.0034731%" y2="0.0321145538%" id="linearGradient-22">
            <stop stop-color="#33CCCC" offset="0.4663507%"></stop>
            <stop stop-color="#3ACBC8" offset="12.73%"></stop>
            <stop stop-color="#4EC8BF" offset="30.61%"></stop>
            <stop stop-color="#6DC3AF" offset="51.95%"></stop>
            <stop stop-color="#9ABB98" offset="75.94%"></stop>
            <stop stop-color="#CEB37E" offset="100%"></stop>
        </linearGradient>
        <linearGradient x1="50.0001717%" y1="99.9733387%" x2="50.0001717%" y2="-0.0304101958%" id="linearGradient-23">
            <stop stop-color="#33CCCC" offset="0.4663507%"></stop>
            <stop stop-color="#3ACBC8" offset="12.73%"></stop>
            <stop stop-color="#4EC8BF" offset="30.61%"></stop>
            <stop stop-color="#6DC3AF" offset="51.95%"></stop>
            <stop stop-color="#9ABB98" offset="75.94%"></stop>
            <stop stop-color="#CEB37E" offset="100%"></stop>
        </linearGradient>
        <linearGradient x1="49.9902608%" y1="100.011085%" x2="49.9902608%" y2="0.0302715882%" id="linearGradient-24">
            <stop stop-color="#33CCCC" offset="0.4663507%"></stop>
            <stop stop-color="#3ACBC8" offset="12.73%"></stop>
            <stop stop-color="#4EC8BF" offset="30.61%"></stop>
            <stop stop-color="#6DC3AF" offset="51.95%"></stop>
            <stop stop-color="#9ABB98" offset="75.94%"></stop>
            <stop stop-color="#CEB37E" offset="100%"></stop>
        </linearGradient>
        <linearGradient x1="49.9968698%" y1="99.8079404%" x2="49.9968698%" y2="-0.1553876%" id="linearGradient-25">
            <stop stop-color="#33CCCC" offset="0.4663507%"></stop>
            <stop stop-color="#3ACBC8" offset="12.73%"></stop>
            <stop stop-color="#4EC8BF" offset="30.61%"></stop>
            <stop stop-color="#6DC3AF" offset="51.95%"></stop>
            <stop stop-color="#9ABB98" offset="75.94%"></stop>
            <stop stop-color="#CEB37E" offset="100%"></stop>
        </linearGradient>
        <linearGradient x1="50.0001717%" y1="100.010112%" x2="50.0001717%" y2="-0.091208561%" id="linearGradient-26">
            <stop stop-color="#33CCCC" offset="0.4663507%"></stop>
            <stop stop-color="#3ACBC8" offset="12.73%"></stop>
            <stop stop-color="#4EC8BF" offset="30.61%"></stop>
            <stop stop-color="#6DC3AF" offset="51.95%"></stop>
            <stop stop-color="#9ABB98" offset="75.94%"></stop>
            <stop stop-color="#CEB37E" offset="100%"></stop>
        </linearGradient>
        <linearGradient x1="50.0001717%" y1="99.9266722%" x2="50.0001717%" y2="-0.0612995188%" id="linearGradient-27">
            <stop stop-color="#33CCCC" offset="0.4663507%"></stop>
            <stop stop-color="#3ACBC8" offset="12.73%"></stop>
            <stop stop-color="#4EC8BF" offset="30.61%"></stop>
            <stop stop-color="#6DC3AF" offset="51.95%"></stop>
            <stop stop-color="#9ABB98" offset="75.94%"></stop>
            <stop stop-color="#CEB37E" offset="100%"></stop>
        </linearGradient>
    </defs>
    <g stroke="none" stroke-width="1" fill="none" fill-rule="evenodd">
        <g fill-rule="nonzero">
            <path d="M1774,153.8 C1754.9,153.6 1735.9,149.7 1717.1,145.5 C1660.1,132.5 1603.9,113.8 1547.9,95.3 C1487.7,75.5 1427.7,54.9 1367.2,36.2 C1322.8,22.4 1277.6,7.9 1232,2.1 C1208.9,-0.8 1185.7,0.9 1164.8,14.5 C1132.5,35.6 1114.3,76.8 1088.8,107.5 C1076.1,122.8 1061.3,135.1 1044.3,141.3 C1022.3,149.3 999,146.6 976.8,141.4 C946.1,134.1 916.2,121.8 886.7,108.9 C853.2,94.2 820.1,78.1 786.9,62.4 C754.9,47.3 722.8,32.4 690,20.1 C663.8,10.3 636.5,1.3 609,0.7 C568.2,-0.2 531.6,18.8 496.7,43.4 C461.7,68.1 427.2,93.9 386.4,100 C359.6,104 332.5,99.7 306.2,93.1 C272.3,84.7 239.1,72.4 206.1,59.9 C170.7,46.5 135.5,32.4 99.7,20.7 C67.5,10.2 34.4,0.9 1,0.7 C1,0.5 1,0.4 1,0.2 C34.4,0.4 67.5,9.7 99.6,20.2 C135.4,31.9 170.6,46 206,59.5 C239,72 272.3,84.3 306.2,92.7 C332.5,99.2 359.6,103.5 386.4,99.5 C427.2,93.4 461.7,67.7 496.7,42.9 C513.3,31.2 530.3,20.1 548.4,12.4 C567.9,4.1 588.4,-0.2 609,0.2 C636.5,0.8 663.8,9.8 690,19.6 C722.8,31.8 754.9,46.8 786.9,61.9 C820.1,77.6 853.2,93.7 886.8,108.5 C916.2,121.4 946.2,133.7 976.9,141 C999.1,146.2 1022.4,148.9 1044.4,140.9 C1061.4,134.7 1076.2,122.4 1088.9,107.1 C1114.4,76.4 1132.5,35.1 1164.8,14 C1185.7,0.3 1208.9,-1.4 1232,1.6 C1277.6,7.4 1322.8,21.9 1367.2,35.7 C1427.6,54.5 1487.7,75.1 1547.9,94.9 C1603.9,113.3 1660.1,132.1 1717.1,145.1 C1735.8,149.4 1754.9,153.2 1773.9,153.4 C1774,153.5 1774,153.6 1774,153.8 Z" fill="url(#linearGradient-1)"></path>
            <path d="M1769.3,170 C1749.7,169.1 1730.2,165.2 1710.9,160.8 C1654.6,148 1599.1,129.9 1543.8,112.2 C1484.9,93.3 1426.1,73.7 1367,55.8 C1322.8,42.4 1277.9,28.5 1232.6,22.3 C1219.8,20.5 1207.5,19.9 1194.8,22.9 C1184.7,25.3 1175,29.5 1165.9,35.4 C1133.5,56.4 1112.6,95.2 1085.7,124.6 C1072.3,139.2 1057.1,151.4 1040,157.8 C1017.7,166.1 995.2,163.2 972.7,157.7 C942.1,150.3 912.2,138.3 882.7,125.6 C849.5,111.4 816.7,95.8 783.8,80.6 C752.1,66 720.2,51.6 687.7,39.8 C661.5,30.3 633.9,20.9 606.5,20.4 C567,19.6 529.9,39.3 495.7,62 C460.2,85.6 425.3,110.2 384.7,116.8 C357.7,121.2 330.5,116.6 303.9,110 C270.7,101.8 238,90 205.6,77.9 C170.6,64.9 135.7,51.2 100.4,39.8 C68,29.4 34.8,20.3 1.2,19.5 C1.2,19.2 1.2,19.1 1.2,18.8 C34.8,19.6 68,28.6 100.4,39.1 C135.8,50.5 170.7,64.2 205.7,77.3 C238.2,89.4 270.8,101.2 304.1,109.4 C330.7,116 357.9,120.6 384.9,116.2 C425.4,109.6 460.4,84.9 495.8,61.3 C530,38.5 567.1,18.9 606.6,19.6 C634,20.1 661.7,29.4 687.8,39 C720.3,50.9 752.2,65.3 783.9,79.9 C816.8,95.1 849.7,110.7 882.9,125 C912.4,137.7 942.3,149.7 973,157.1 C995.5,162.6 1018.1,165.5 1040.3,157.2 C1057.4,150.8 1072.6,138.6 1085.9,124 C1112.7,94.5 1133.5,55.6 1165.9,34.6 C1175,28.7 1184.7,24.5 1194.8,22.1 C1207.5,19.1 1219.8,19.7 1232.6,21.5 C1278,27.7 1322.8,41.6 1367.1,55 C1426.3,73 1485.1,92.6 1544.1,111.6 C1599.5,129.4 1655.1,147.5 1711.4,160.3 C1730.7,164.7 1750.2,168.6 1769.8,169.5 C1769.5,169.7 1769.4,169.8 1769.3,170 Z" fill="url(#linearGradient-2)"></path>
            <path d="M1756.5,181.5 C1736.7,180.3 1717.1,176.5 1697.6,172.2 C1644,160.3 1591.1,144 1538.2,127.8 C1481.1,110.3 1424.1,92 1366.8,75.4 C1323.5,62.8 1279.8,50.1 1235.6,43.8 C1222.3,41.9 1209.7,41.2 1196.6,44.4 C1186.8,46.8 1177.2,50.7 1168.1,56 C1133.8,75.9 1108.7,112.5 1078.7,140.3 C1063.9,154.1 1047.7,165.6 1029.8,171.8 C1020.5,175 1010.5,177.3 1000.8,177.3 C988.3,177.2 975.6,174.5 963.4,171.6 C933,164.4 903.2,153 873.9,140.9 C841.9,127.7 810.2,113.3 778.4,99.3 C747,85.4 715.4,71.8 683.3,60.5 C657.4,51.4 630.5,43 603.5,41.7 C583.1,40.7 561.6,46.6 542.2,54.2 C524.6,61.1 507.7,70.6 491.1,80.6 C455,102.5 419.4,125.1 379.1,131.5 C352.2,135.8 325.2,131.3 298.7,124.9 C266.3,117.1 234.4,106 202.7,94.6 C168.6,82.3 134.6,69.4 100.2,58.6 C67.7,48.4 34.6,39.8 1,38.7 C1,38.3 1,38.1 1,37.7 C34.6,38.7 67.8,47.4 100.2,57.6 C134.7,68.4 168.7,81.4 202.8,93.7 C234.6,105.2 266.5,116.3 299,124.1 C325.5,130.5 352.5,135 379.4,130.7 C419.7,124.2 455.3,101.5 491.3,79.5 C507.9,69.4 524.8,59.9 542.4,52.9 C561.8,45.3 583.3,39.4 603.7,40.4 C630.7,41.7 657.7,50.2 683.6,59.3 C715.7,70.6 747.3,84.3 778.8,98.3 C810.6,112.4 842.4,126.9 874.4,140.1 C903.8,152.2 933.6,163.7 964,170.9 C976.2,173.8 988.9,176.5 1001.4,176.6 C1011.1,176.7 1021.1,174.4 1030.4,171.1 C1048.2,164.9 1064.4,153.3 1079.1,139.5 C1108.9,111.6 1133.7,74.8 1167.9,54.8 C1177,49.5 1186.5,45.5 1196.4,43.2 C1209.6,40 1222.2,40.7 1235.4,42.6 C1279.7,48.9 1323.5,61.7 1366.9,74.3 C1424.3,91 1481.4,109.4 1538.7,127 C1591.6,143.3 1644.7,159.7 1698.4,171.6 C1717.9,175.9 1737.5,179.7 1757.3,180.9 C1757.1,181.2 1756.9,181.3 1756.5,181.5 Z" fill="url(#linearGradient-3)"></path>
            <path d="M1737.3,189.1 C1717.7,187.9 1698.2,184.4 1678.8,180.4 C1627.1,169.7 1575.9,154.9 1524.8,140.2 C1471.3,124.8 1418,108.8 1364.4,94.2 C1322.8,82.9 1280.8,71.6 1238.4,66 C1225.3,64.3 1212.9,63.8 1199.8,66.6 C1189.5,68.9 1179.3,72.6 1169.6,77.5 C1132.8,95.9 1102.7,129.2 1069.1,154.7 C1052.8,167 1035.4,177.5 1016.8,183.3 C1007.2,186.3 997,188.6 987,188.6 C974.5,188.5 961.7,185.9 949.5,183.2 C887.7,169.4 828.2,141.4 768.8,116.7 C738.5,104.1 708,91.7 677.1,81.5 C651.1,72.9 624.3,65 597.3,63.7 C577.1,62.8 555.9,68.2 536.5,74.8 C518.6,81 501.3,89.5 484.2,98.5 C447.7,117.9 411.7,137.8 372,143.8 C345,147.9 318.1,143.8 291.4,137.7 C259.9,130.5 228.8,120.2 198,109.6 C164.6,98.1 131.3,85.9 97.5,75.9 C65.8,66.5 33.6,58.7 1,57.7 C1,57.2 1,56.9 1,56.4 C33.6,57.5 65.9,65.3 97.6,74.7 C131.4,84.8 164.8,97 198.3,108.6 C229.2,119.3 260.3,129.7 291.9,136.9 C318.6,143 345.5,147.1 372.5,143 C412.3,136.9 448.2,116.9 484.7,97.3 C501.8,88.1 519,79.6 536.9,73.3 C556.3,66.6 577.5,61.1 597.7,62.1 C624.7,63.4 651.6,71.3 677.6,80 C708.6,90.3 739.1,102.8 769.5,115.5 C829,140.3 888.6,168.5 950.5,182.4 C962.8,185.2 975.5,187.8 988.1,187.9 C998,187.9 1008.2,185.6 1017.8,182.6 C1036.3,176.7 1053.5,166.2 1069.8,153.8 C1103.2,128.2 1132.8,94.6 1169.5,76.1 C1179.2,71.2 1189.3,67.5 1199.6,65.2 C1212.6,62.3 1225,62.8 1238.1,64.6 C1280.6,70.3 1322.7,81.7 1364.5,93.1 C1418.3,107.8 1471.9,123.9 1525.6,139.5 C1576.9,154.3 1628.2,169.3 1680.1,180.1 C1699.5,184.1 1719,187.7 1738.7,188.9 C1738.2,188.9 1737.9,189 1737.3,189.1 Z" fill="url(#linearGradient-4)"></path>
            <path d="M1713.1,193.8 C1694.9,192.8 1676.7,190.1 1658.7,186.8 C1609.5,177.8 1560.7,165 1512,152.2 C1462.4,139.2 1412.9,125.6 1363.1,113.3 C1322.9,103.4 1282.5,93.6 1241.7,88.9 C1229,87.5 1216.9,87.2 1204.3,89.4 C1193.2,91.4 1182.3,94.7 1171.6,99.1 C1131.2,115.5 1095.6,145.2 1057.5,167.9 C1039.3,178.7 1020.5,187.9 1000.7,193.1 C990.5,195.8 979.9,197.9 969.5,197.8 C956.9,197.7 944.2,195.4 931.8,192.9 C872.2,180.7 814.4,155.7 756.8,133.6 C727.3,122.3 697.7,111.2 667.6,102.1 C642.3,94.4 616.1,87.5 590,86.5 C569.4,85.7 548,90.3 528,96.1 C510.2,101.3 492.8,108.5 475.5,116.2 C438.2,132.8 401.2,149.8 361.5,154.7 C335.3,158 309.3,154.6 283.4,149.2 C252.5,142.7 222.1,133.2 191.8,123.4 C129.5,103.1 66,78.4 1.1,76.6 C1.1,76 1.1,75.7 1.1,75.1 C66.1,76.9 129.6,101.9 192.1,122.3 C222.5,132.2 253,141.8 283.9,148.4 C309.8,153.9 335.9,157.3 362.1,154 C401.8,149 438.7,131.9 476,115 C493.6,107 511.4,99.5 529.6,94.2 C549.1,88.5 569.9,84 590.1,84.6 C616.5,85.4 643,92.6 668.6,100.4 C698.7,109.6 728.3,120.8 757.9,132.2 C815.9,154.6 874,180 934.1,192.2 C946.4,194.7 959.2,197.1 971.7,197.1 C981.6,197 991.7,195.1 1001.3,192.5 C1021.4,187.2 1040.5,177.7 1058.9,166.5 C1096.6,143.6 1131.7,113.6 1171.8,97.1 C1182.1,92.9 1192.7,89.6 1203.5,87.5 C1216.4,85.1 1228.8,85.4 1241.8,86.9 C1282.8,91.7 1323.5,101.7 1363.8,111.7 C1413.8,124.2 1463.6,137.9 1513.4,151.1 C1562.3,164 1611.3,177 1660.7,186.1 C1678.8,189.4 1697,192.2 1715.2,193.2 C1714.3,193.6 1713.9,193.7 1713.1,193.8 Z" fill="url(#linearGradient-5)"></path>
            <path d="M1685.3,196.3 C1667.6,195.7 1649.9,193.5 1632.4,190.7 C1541,176.6 1450.9,151.3 1360.2,131.8 C1322.6,123.7 1284.8,115.9 1246.8,112.3 C1221.7,110 1197.4,113.2 1173,121 C1128.8,135.1 1087.6,160.5 1044.9,179.9 C1024.3,189.3 1003.1,197.3 981.4,201.8 C971,203.9 960.3,205.5 949.7,205.5 C937.4,205.5 925.1,203.7 913,201.5 C855.3,191.4 799.1,169.4 743,150.1 C714.7,140.3 686.2,130.7 657.5,123 C632.5,116.3 606.9,110.5 581.3,109.8 C542.2,108.7 503.2,120.4 465.8,133.6 C427.8,147.1 390,160.7 350.4,164.5 C295.1,169.7 239.8,153.1 186.4,137.1 C125.5,119 64,96.9 1.1,95.7 C1.1,95 1.1,94.6 1.1,93.9 C64.1,95.2 125.8,117.4 186.6,135.9 C240,152.1 295.6,169.1 350.9,163.8 C390.7,160 428.6,145.9 466.8,132 C503.8,118.6 542.5,106.9 581.3,107.7 C607.2,108.2 633.2,114.3 658.5,121.2 C687.7,129.1 716.5,139 745.3,149 C801.1,168.5 857.1,190.6 914.7,200.8 C926.8,203 939.2,204.8 951.5,204.9 C962.3,205 973.2,203.3 983.7,201 C1005.2,196.4 1026.1,188.2 1046.5,178.6 C1088.7,158.9 1129.3,133.1 1173,118.9 C1184.3,115.2 1195.9,112.3 1207.5,110.6 C1220.6,108.7 1233.5,108.9 1246.6,110.2 C1284.4,113.8 1321.9,121.7 1359.3,129.9 C1451.1,149.9 1542.4,175.9 1634.9,190.5 C1652.5,193.3 1670.3,195.5 1688,196.2 C1686.9,196.2 1686.4,196.3 1685.3,196.3 Z" fill="url(#linearGradient-6)"></path>
            <path d="M1655.5,197.7 C1638.4,197.5 1621.4,195.9 1604.4,193.9 C1521.3,184 1439,164.6 1356.3,150.2 C1321.5,144.1 1286.6,138.4 1251.5,136.1 C1225.8,134.5 1200.6,137 1175.4,142.9 C1126.2,154.5 1079,175.8 1030.8,192 C1008,199.7 984.9,206.3 961.5,209.8 C938.2,213.4 915.1,212.9 891.8,209.6 C836.3,201.6 782.1,183 727.9,166.7 C700.8,158.5 673.6,150.5 646.1,144.2 C621.5,138.5 596.5,134 571.4,133.7 C532.3,133.2 493.6,141 455.4,151 C416.6,161.1 378.1,171.4 338.4,173.9 C223.5,181.2 115.5,115.7 1.2,114.8 C1.2,114 1.2,113.6 1.2,112.7 C115.8,113.8 224,180.4 339.1,173 C378.7,170.4 417.2,159.9 455.8,149.4 C494,139 532.8,130.8 572,131.2 C597.1,131.4 622.1,136.2 646.7,141.9 C674.6,148.4 702.1,156.6 729.6,165 C783.9,181.6 838.2,200.5 893.8,208.8 C917,212.2 940,212.8 963.2,209.2 C986.4,205.6 1009.2,198.9 1031.7,191.1 C1079.3,174.6 1125.7,152.9 1174.3,140.9 C1199.3,134.7 1224.3,131.9 1249.8,133.6 C1284.9,135.9 1319.9,141.8 1354.7,148 C1439,163 1522.8,183.3 1607.6,193.8 C1624.6,195.9 1641.7,197.5 1658.9,197.8 C1657.5,197.6 1656.8,197.7 1655.5,197.7 Z" fill="url(#linearGradient-7)"></path>
            <path d="M1625.2,198.8 C1609.7,199 1594.2,198.3 1578.7,197.1 C1502.6,191.4 1427,177.8 1351.2,168.3 C1292.9,161 1234.5,155.4 1176.2,165.2 C1074.5,182.3 975.1,228.7 871.3,217.5 C818.2,211.8 765.9,196.7 713.8,183.4 C663.7,170.7 612.9,157.6 561.6,157.5 C522.2,157.5 483.3,161.7 444.4,168.3 C405.2,175 366.1,181.7 326.5,182.9 C301.5,183.7 276.5,182.8 251.6,179.3 C224.7,175.5 198,169.4 171.4,163 C115.3,149.4 58.8,133.6 1.4,133.8 C1.4,132.9 1.4,132.4 1.4,131.499539 C59.4,131.4 116.3,147.6 172.9,161.6 C199.2,168.1 225.7,174.2 252.4,178.1 C277.3,181.7 302.3,182.7 327.4,181.9 C367.4,180.6 406.8,173.3 446.3,166.2 C485.2,159.2 523.9,154.7 563.2,154.7 C614.6,154.8 665.7,168.5 715.8,181.5 C768.1,195.1 820.5,210.6 873.8,216.6 C977.3,228.3 1075.9,180.1 1177.1,162.4 C1235.1,152.3 1293.3,158.4 1351.2,166 C1428.2,176.1 1505,190.6 1582.4,196.8 C1598,198 1613.5,198.9 1629.1,198.7 C1627.4,198.7 1626.6,198.7 1625.2,198.8 Z" fill="url(#linearGradient-8)"></path>
            <path d="M1595.8,200.4 C1581,201 1566.1,200.9 1551.3,200.5 C1483,198.7 1414.9,191.1 1346.7,186.6 C1317.7,184.7 1288.6,183.1 1259.6,183.4 C1232.5,183.7 1205.4,184.1 1178.4,187.1 C1069,199.2 960.8,233.8 850.4,225.6 C799.6,221.8 749.3,210.1 699.1,200 C650.8,190.2 602,180.5 553,181.2 C532,181.5 511.1,180.9 490.1,181.8 C471.6,182.6 453,184 434.5,185.5 C394.5,188.8 354.5,192.2 314.4,192.2 C289.7,192.2 264.9,192 240.3,189.1 C214.8,186.2 189.5,181.2 164.3,175.9 C110.3,164.6 56.2,151.8 1.3,152.6 C1.3,151.6 1.3,151 1.3,150 C56.5,149.3 110.7,162.4 164.9,174 C190.5,179.5 216.2,184.6 242.2,187.7 C266.6,190.6 291,190.9 315.4,190.8 C355.4,190.7 395.3,186.9 435.2,183.1 C454.1,181.3 473,179.7 491.9,178.7 C512.6,177.6 533.2,178 553.9,177.8 C654.8,177.1 752.7,216.2 853,224.2 C962.6,232.9 1069.8,196.6 1178.2,183.9 C1234.6,177.3 1291.5,179.7 1348,183.9 C1417.1,189.1 1486,197.4 1555.2,199.7 C1570.1,200.2 1585.1,200.4 1600,199.8 C1598.1,200.2 1597.3,200.3 1595.8,200.4 Z" fill="url(#linearGradient-9)"></path>
            <path d="M1568.9,203.5 C1555,204.3 1541.1,204.9 1527.1,205.2 C1466.1,206.7 1405,205.2 1344,205.3 C1316.9,205.3 1289.8,205.6 1262.7,206.8 C1235.4,208 1208.2,207.2 1180.9,208.9 C1117,213 1053.3,222.1 989.5,228.5 C960.7,231.4 931.9,233.9 903,234.8 C890.5,235.2 878,234.7 865.5,234.7 C854.2,234.7 842.9,235.1 831.6,234.6 C735.4,230.6 640.7,202.5 544.2,204.5 C523.1,204.9 501.8,203.3 480.6,203.1 C461.8,202.9 442.9,202.9 424.1,203 C383.6,203.2 343.2,203.4 302.7,202.3 C278.5,201.6 254.4,202 230.2,199.8 C206.1,197.6 182.1,193.8 158.2,189.6 C106,180.5 53.8,170.4 0.9,171.6 C0.9,170.5 0.9,169.9 0.9,168.7 C54,167.5 106.4,178 158.8,187.4 C183.1,191.8 207.5,195.8 232,198.1 C256.1,200.3 280.3,200 304.4,200.6 C344.7,201.6 385,200.9 425.3,200.2 C444.3,199.9 463.3,199.7 482.3,199.7 C503.4,199.8 524.6,201.2 545.7,200.8 C642.5,199 737.4,228.5 833.9,232.9 C949.6,238.3 1064,213.6 1179.2,205.4 C1207,203.4 1234.8,204.1 1262.6,203 C1290,201.9 1317.4,201.9 1344.8,202.2 C1406.3,202.8 1467.9,205.1 1529.4,204.2 C1543.8,204 1558.1,203.5 1572.5,202.7 C1571.2,203.1 1570.4,203.2 1568.9,203.5 Z" fill="url(#linearGradient-10)"></path>
            <path d="M1546,208.9 C1532.8,209.8 1519.6,210.8 1506.4,211.7 C1451.5,215.7 1396.6,219.9 1341.6,224 C1316.5,225.9 1291.4,227.7 1266.2,229.5 C1253.5,230.4 1241.1,230 1228.4,229.9 C1212.7,229.7 1196.9,230 1181.2,230.5 C1113.8,232.5 1046.4,238.1 979.1,241.8 C948.6,243.5 918.2,244.9 887.7,245.1 C874.5,245.2 861.2,244.3 847.9,244.5 C837.1,244.6 826.4,245.1 815.6,244.9 C768.6,244.2 721.8,238.7 675.1,234.1 C651.4,231.7 627.8,229.5 604.1,228.1 C581.6,226.8 559.3,226.9 536.8,227.2 C515.8,227.5 494.6,225.4 473.6,224.2 C454.5,223.1 435.4,222 416.3,220.8 C375.6,218.2 335,215.6 294.3,213.7 C270.4,212.6 246.4,213.3 222.5,211.7 C199.1,210.2 175.7,207.2 152.4,203.9 C102.1,196.8 51.9,189.3 1.2,190.7 C1.2,189.4 1.2,188.8 1.2,187.6 C52.4,186.2 103,194.2 153.8,201.6 C176.9,205 200,208 223.3,209.6 C247.2,211.3 271.1,210.6 295,211.6 C335.8,213.4 376.6,215.5 417.4,217.7 C436.7,218.7 455.9,219.7 475.2,220.7 C496.1,221.7 517.3,223.9 538.2,223.4 C584.6,222.4 630.6,226.2 676.8,231.1 C723.7,236.2 770.7,242.1 817.8,243 C828.9,243.2 839.9,242.8 850.9,242.6 C863.8,242.5 876.6,243.2 889.5,243.1 C919.6,242.8 949.8,241.3 979.9,239.4 C1047.3,235.3 1114.6,229.1 1182.1,226.8 C1210.2,225.8 1238.4,227.5 1266.4,225.6 C1291.4,223.9 1316.5,222.3 1341.5,220.7 C1397.6,217.2 1453.7,213.9 1509.7,210.2 C1522.9,209.3 1536.2,208.5 1549.4,207.5 C1548,208.2 1547.3,208.4 1546,208.9 Z" fill="url(#linearGradient-11)"></path>
            <path d="M1528.5,217.6 C1515.4,218.4 1502.4,219.6 1489.3,221 C1439.4,226.5 1389.8,235.9 1340,243.3 C1316.7,246.7 1293.4,249.7 1270.1,251.6 C1257,252.7 1244,252.3 1230.8,252 C1214.9,251.7 1198.9,251.7 1183,251.8 C1112.2,252.3 1041.5,254.9 970.8,256.4 C938.8,257.1 906.8,257.6 874.7,257.3 C861.8,257.2 848.9,256.4 836.1,256.5 C825,256.6 813.9,257.2 802.7,257.2 C757.2,257.3 711.8,254.4 666.4,251.9 C621.6,249.5 576.9,248.1 532.1,249.1 C510.8,249.6 489.2,247.1 468,245.2 C448.5,243.5 429,241.2 409.5,238.9 C368.6,234 327.7,229.1 286.6,226.8 C262.6,225.5 238.6,226.3 214.5,225.2 C192.5,224.1 170.6,222 148.7,219.6 C99.5,214.3 50.5,208.7 1.1,209.9 C1.1,208.5 1.1,207.9 1.1,206.5 C50.7,205.2 99.9,211.1 149.2,216.7 C171.5,219.2 193.8,221.5 216.2,222.7 C239.9,223.9 263.6,223.1 287.3,224.3 C328.8,226.6 370.1,231.2 411.4,235.7 C430.6,237.8 449.8,239.8 469,241.4 C489.9,243.2 511.2,245.6 532.2,245.2 C577.4,244.4 622.4,245.8 667.6,248.6 C713.2,251.4 758.7,254.7 804.4,254.8 C815.5,254.8 826.6,254.2 837.8,254.1 C851,254 864.2,254.8 877.4,254.9 C908.8,255.1 940.2,254.4 971.6,253.6 C1042.1,251.8 1112.7,248.6 1183.2,248 C1198.7,247.8 1214.1,247.8 1229.6,248.1 C1243.1,248.3 1256.4,248.7 1269.9,247.6 C1293.4,245.7 1316.9,242.9 1340.4,239.7 C1390.9,232.9 1441.3,224.3 1491.9,219 C1505,217.6 1518,216.5 1531.1,215.7 C1530,216.4 1529.5,216.8 1528.5,217.6 Z" fill="url(#linearGradient-12)"></path>
            <path d="M1517.9,230.3 C1504.6,230.8 1491.3,231.8 1478.1,233.5 C1431.4,239.5 1385.7,253.3 1339.5,262.9 C1317.2,267.5 1294.8,271.1 1272.3,272.7 C1243.4,274.8 1214.2,272.8 1185.3,272.6 C1112,272.1 1038.7,272.4 965.4,272.3 C908.6,272.2 851.8,271.3 795,271.7 C706.2,272.3 617.4,268.5 528.6,269.8 C487.8,270.4 446.7,264 406.2,257.5 C365.1,251 324.1,244.2 282.6,242 C258.7,240.7 234.8,241.5 210.9,240.6 C189,239.8 167.2,238.1 145.3,236.3 C97.2,232.3 49.2,228.3 1,228.9 C1,227.4 1,226.7 1,225.2 C49.3,224.4 97.3,228.6 145.5,232.9 C167.4,234.8 189.3,236.5 211.2,237.4 C235.1,238.4 258.9,237.5 282.8,238.9 C324.4,241.2 365.7,247.7 407,254 C447.4,260.2 488.4,266.5 529.2,266 C618.1,264.7 707,269.4 795.9,268.8 C852.5,268.4 909.1,269.4 965.7,269.2 C1038.5,269.1 1111.4,268.4 1184.2,268.7 C1213.5,268.8 1243,271 1272.3,268.7 C1294.9,267 1317.4,263.5 1339.7,259.1 C1386.4,249.9 1432.7,236.8 1479.9,230.9 C1493.1,229.2 1506.3,228.1 1519.5,227.6 C1518.7,228.6 1518.4,229.2 1517.9,230.3 Z" fill="url(#linearGradient-13)"></path>
            <path d="M1515.5,247.9 C1501.9,248 1488.2,248.8 1474.6,250.5 C1429.3,256.1 1385.6,272 1341,282.5 C1318.5,287.8 1295.8,291.4 1272.9,292.5 C1244.3,293.9 1215.4,292.9 1186.8,292.7 C1055.3,291.6 923.9,289.3 792.4,289 C704.2,288.8 616,289.7 527.9,289.3 C486.7,289.1 446.1,284 405.3,276.5 C364.4,269 323.7,261.3 282.3,259.6 C258.1,258.6 233.8,259 209.6,258.1 C188.1,257.3 166.6,256 145.2,254.6 C97.2,251.4 49.3,248.3 1.3,248 C1.3,246.4 1.3,245.6 1.3,244.1 C49.3,244.2 97.1,247.5 145,250.8 C166.4,252.3 187.8,253.6 209.2,254.5 C233.5,255.4 257.8,254.9 282.1,256 C323.5,257.8 364.3,265.4 405.2,272.7 C445.9,280 486.6,285.4 527.8,285.5 C616,285.6 704.1,285.4 792.3,285.4 C924,285.5 1055.6,287.8 1187.3,288.9 C1215.9,289.1 1244.6,290.2 1273.2,288.8 C1296.1,287.7 1318.8,284.1 1341.3,278.8 C1385.9,268.3 1429.5,252.3 1474.8,246.7 C1488.4,245 1502.1,244.2 1515.7,244.2 C1515.5,245.5 1515.5,246.3 1515.5,247.9 Z" fill="url(#linearGradient-14)"></path>
            <path d="M1515.5,266.9 C1501.9,267.1 1488.3,268 1474.8,269.6 C1429.2,275.2 1385,290.3 1339.9,300.3 C1317.3,305.3 1294.6,308.9 1271.7,310.2 C1242.9,311.8 1214,311 1185.2,310.6 C1055.8,309.1 926.4,305.2 797,304.7 C708.4,304.4 619.9,309.5 531.3,308.2 C510.1,307.9 489.1,307.5 468,304.9 C448.3,302.4 428.8,298.6 409.3,294.5 C368.9,285.9 328.6,277.1 287.5,275.8 C263.4,275 239.2,275.1 215.1,274.3 C192.9,273.6 170.6,272.8 148.4,271.9 C99.3,270 50.2,268.1 1.2,266.9 C1.2,265.2 1.2,264.4 1.2,262.7 C50,263.7 98.7,266 147.4,268.2 C169.4,269.2 191.5,270.1 213.5,270.9 C237.6,271.7 261.8,271.6 285.9,272.4 C327.1,273.8 367.5,282.3 408,290.6 C427.6,294.6 447.2,298.3 466.9,300.7 C488,303.3 509,303.7 530.2,304 C618.7,305.2 707.1,301 795.6,301.4 C925.6,302 1055.6,305.4 1185.6,306.7 C1214.4,307 1243.4,307.8 1272.2,306.3 C1295.1,305.1 1317.8,301.5 1340.4,296.4 C1385.3,286.2 1429.4,271 1474.9,265.3 C1488.4,263.6 1502,262.8 1515.6,262.6 C1515.5,264.4 1515.5,265.2 1515.5,266.9 Z" fill="url(#linearGradient-15)"></path>
            <path d="M1515.5,285.9 C1501.9,286.1 1488.3,287 1474.7,288.6 C1428.5,294 1383.6,307.9 1337.9,317.3 C1315.1,322 1292.2,325.4 1269.1,326.6 C1240.5,328.2 1211.8,327.4 1183.3,326.9 C1057.6,324.5 932.1,317.1 806.4,317.7 C717,318.2 627.9,329 538.5,327.3 C517.4,326.9 496.6,326.7 475.5,323.5 C456.2,320.6 437.1,316.1 418,311.2 C378.4,301.1 338.9,290.7 298.3,289.3 C274,288.4 249.7,288.4 225.4,288.1 C201.9,287.8 178.4,287.7 154.9,287.6 C103.6,287.5 52.4,287.5 1.2,285.9 C1.2,284.1 1.2,283.2 1.2,281.4 C51.8,283 102.5,283.4 153.2,284 C176.4,284.3 199.5,284.5 222.7,285 C246.9,285.5 271.2,285.5 295.4,286.3 C336.1,287.7 375.8,297.6 415.6,307.4 C434.8,312.1 454,316.4 473.4,319.2 C494.5,322.2 515.3,322.4 536.5,322.8 C625.7,324.4 714.7,315.1 803.8,314.9 C930.5,314.6 1057.1,321.1 1183.8,323.2 C1212.5,323.7 1241.3,324.4 1269.9,322.9 C1292.9,321.6 1315.8,318.2 1338.5,313.4 C1384,303.8 1428.8,289.6 1474.8,284.1 C1488.4,282.5 1501.9,281.6 1515.5,281.4 C1515.5,283.3 1515.5,284.2 1515.5,285.9 Z" fill="url(#linearGradient-16)"></path>
            <path d="M1515.5,305 C1501.8,305.2 1488.2,306 1474.5,307.5 C1427.6,312.4 1381.7,325.1 1335.2,333.7 C1312.1,338 1289,341.1 1265.7,342.2 C1237.7,343.6 1209.5,342.8 1181.5,341.9 C1061,338 940.5,325.8 819.8,328.5 C729.3,330.6 639.5,348 548.8,346.4 C527.8,346 507.3,345.5 486.5,341.7 C467.6,338.2 449,332.9 430.5,327.1 C391.9,315 353.6,302.8 313.6,300.9 C288.9,299.7 264.1,300 239.4,300.2 C214.2,300.4 189.1,301.3 164,302.2 C109.8,304.2 55.5,306.7 1.2,305.1 C1.2,303.2 1.2,302.3 1.2,300.4 C54.7,302.1 108.1,300.2 161.5,298.8 C186.2,298.1 210.9,297.5 235.6,297.5 C260.2,297.4 284.9,297.2 309.4,298.3 C349.5,300.1 388.2,311.8 427,323.4 C445.6,329 464.4,334.1 483.4,337.4 C504.3,341 524.9,341.5 545.9,341.9 C636.2,343.6 725.8,327.9 816,326.3 C938,324.1 1059.9,335.1 1181.8,338.6 C1210,339.4 1238.3,340.2 1266.5,338.7 C1289.7,337.5 1312.8,334.3 1335.8,329.9 C1382,321.1 1427.7,308.1 1474.4,303 C1488,301.5 1501.7,300.7 1515.3,300.5 C1515.5,302.1 1515.5,303.1 1515.5,305 Z" fill="url(#linearGradient-17)"></path>
            <path d="M1515.5,324 C1501.7,324.2 1488,324.9 1474.2,326.1 C1426.4,330.5 1379.4,341.7 1332,349.3 C1281.2,357.4 1230.6,358.3 1179.5,355.8 C1117.3,352.7 1055.2,346.6 993,342.1 C940.8,338.3 888.3,335.1 836,337.5 C744.1,341.7 653.5,366.6 561.4,365.4 C540.7,365.1 520.4,364 499.9,359.3 C481.5,355.1 463.6,348.8 445.7,341.9 C408.4,327.5 371.5,313.2 332.2,310.5 C307,308.8 281.5,309.6 256.2,310.5 C229.1,311.5 202,313.4 174.9,315.4 C117,319.7 59.1,325.1 1.1,323.8 C1.1,321.8 1.1,320.8 1.1,318.8 C58.1,320.3 115,315.6 171.9,311.9 C198.4,310.2 225,308.6 251.6,307.8 C276.7,307 302,306.4 327.1,308 C366.6,310.4 403.9,324.2 441.6,338 C459.6,344.6 477.8,350.6 496.3,354.6 C516.8,359 537.2,360 558,360.3 C649.7,361.6 740.1,338.8 831.6,335.2 C884.4,333.1 937.4,336 990.1,339.5 C1053.4,343.7 1116.7,349.4 1180.1,352.2 C1207.6,353.4 1235.2,354.3 1262.7,353 C1286.2,351.9 1309.6,349.1 1333,345.2 C1380.2,337.3 1426.9,325.7 1474.4,321.2 C1488.1,319.9 1501.9,319.2 1515.6,319 C1515.5,321 1515.5,322 1515.5,324 Z" fill="url(#linearGradient-18)"></path>
            <path d="M1515.5,343 C1501.6,343.1 1487.7,343.7 1473.8,344.7 C1425.1,348.4 1376.8,358.1 1328.3,364.6 C1278,371.4 1227.9,372.6 1177.4,369 C1119.8,364.9 1062.3,357 1004.8,351.2 C954.8,346.1 904.4,341.7 854.3,345.4 C760.9,352.3 669.5,385 575.6,384.5 C555.2,384.4 535.1,382.4 515.2,376.9 C497.4,371.9 480.1,364.5 463,356.5 C427.1,339.6 391.8,322.9 353.2,319.4 C327.3,317.1 301,318.6 275.1,320.3 C245.8,322.2 216.6,325.3 187.4,328.5 C125.5,335.3 63.5,343.8 1.3,343.1 C1.3,341 1.3,339.9 1.3,337.8 C62.3,338.7 123.2,331.1 183.9,325 C212.5,322.1 241.1,319.4 269.8,317.7 C295.5,316.2 321.6,314.9 347.3,317.1 C386.1,320.3 421.9,336.4 458.2,352.5 C475.5,360.2 493,367.3 510.9,372.1 C531,377.4 551.1,379.1 571.6,379.3 C665,380 756.2,349.5 849.1,343.4 C899.8,340.1 950.9,344.2 1001.5,348.9 C1060.3,354.4 1119.1,361.8 1178,365.6 C1228.7,368.9 1278.9,367.8 1329.3,360.6 C1377.5,353.8 1425.4,343.7 1473.9,339.8 C1487.7,338.7 1501.6,338.1 1515.5,337.9 C1515.5,339.9 1515.5,340.9 1515.5,343 Z" fill="url(#linearGradient-19)"></path>
            <path d="M1515.5,362 C1501.5,362 1487.4,362.5 1473.4,363.3 C1423.6,366.3 1374.2,374.4 1324.5,379.8 C1274.8,385.2 1225.2,386.8 1175.4,381.9 C1122.5,376.7 1070,367.1 1017.3,359.8 C969.7,353.2 921.5,347.7 873.6,352.6 C778.6,362.3 686.4,403.1 590.6,403.5 C570.6,403.6 550.6,400.7 531.3,394.1 C514,388.3 497.5,379.7 481.2,370.5 C465.3,361.5 449.6,352 433.3,344.4 C414.6,335.7 395.2,329.7 375.3,327.4 C348.7,324.3 321.4,326.8 294.8,329.2 C263.2,332.1 231.7,336.4 200.3,340.8 C134.2,350.1 67.8,361.9 1.2,362 C1.2,359.8 1.2,358.7 1.2,356.5 C66.5,356.7 131.7,345.9 196.5,337.3 C227.3,333.2 258.1,329.3 289,326.7 C315.4,324.5 342.4,322.3 368.8,325.2 C388.8,327.4 408.4,333.1 427.3,341.4 C443.8,348.7 459.8,357.8 475.9,366.5 C492.4,375.4 509.2,383.6 526.6,389.2 C546.1,395.4 566.1,398.1 586.3,398 C681.5,397.9 773.5,359.5 868.1,350.6 C916.6,346 965.5,351.2 1013.8,357.4 C1067.9,364.3 1121.9,373.4 1176.1,378.3 C1226.1,382.8 1275.8,381.3 1325.7,375.5 C1375,369.8 1424.1,361.2 1473.6,358 C1487.6,357.1 1501.6,356.6 1515.6,356.6 C1515.5,358.7 1515.5,359.8 1515.5,362 Z" fill="url(#linearGradient-20)"></path>
            <path d="M1515.5,381.1 C1501.3,381 1487.1,381.3 1472.9,382 C1373.1,386.4 1273.2,407.7 1173.4,394.8 C1125.3,388.6 1077.8,377.1 1029.9,368.3 C984.6,360 938.8,353.8 893.1,359.8 C844.5,366.2 796.9,381.2 749.3,394.8 C702.3,408.2 654.2,421.9 605.7,422.6 C586,422.9 566.2,419 547.5,411.5 C530.7,404.8 514.9,395.1 499.5,384.7 C484.4,374.5 469.5,363.8 453.8,355.2 C435.9,345.3 417,338.5 397.5,335.6 C370.1,331.6 342,335.2 314.7,338.3 C280.8,342.2 247.1,347.7 213.4,353.3 C176.6,359.5 139.9,365.9 103,371.3 C69.2,376.3 35.2,380.5 1.1,381 C1.1,379.1 1.1,377.1 1.1,375.2 C70.8,374.5 140.4,360.5 209.4,349.5 C242.4,344.2 275.5,339.1 308.7,335.5 C335.8,332.6 363.7,329.4 390.8,333.1 C410.4,335.8 429.5,342.4 447.6,351.9 C463.5,360.2 478.6,370.6 494,380.4 C509.7,390.5 525.7,399.8 542.7,406.2 C561.6,413.4 581.5,417 601.2,416.8 C649.4,416.3 697.2,403.4 744.2,390.7 C791.6,377.9 839,363.6 887.3,357.7 C933.7,352 980.2,358.1 1026.2,365.8 C1075.5,374.1 1124.5,385.1 1174.1,391 C1274.1,402.9 1373.4,381.3 1473.2,376.4 C1487.3,375.7 1501.5,375.4 1515.6,375.4 C1515.5,377.2 1515.5,379.1 1515.5,381.1 Z" fill="url(#linearGradient-21)"></path>
            <path d="M1515.5,400.1 C1501.2,400 1486.9,400.1 1472.5,400.5 C1420.6,402 1368.8,407 1316.9,410.2 C1268.4,413.1 1219.6,415.8 1171.3,407.9 C1127.7,400.8 1085.1,387.4 1041.9,377.3 C1021.3,372.5 1000.5,368.4 979.5,366.1 C956.7,363.6 934.3,363.9 911.6,367.5 C862,375.3 813.8,392.9 765.6,408.6 C718.3,424.1 669.4,440.5 620.1,441.6 C582.3,442.4 548.3,423.7 516.9,399 C502.6,387.7 488.5,375.8 473.4,366.2 C456.2,355.2 437.8,347.5 418.7,344.2 C390.7,339.4 361.6,344 333.6,347.8 C297.5,352.7 261.6,359.3 225.7,366.1 C186.4,373.6 147.1,381.4 107.7,388 C72.3,393.9 36.7,399.3 1,400.1 C1,398.1 1,396.1 1,394 C36.2,393.2 71.3,388.2 106.2,382.6 C144.8,376.4 183.3,369 221.8,361.9 C257,355.5 292.2,349.2 327.6,344.6 C355.4,341 384.1,336.8 412,341.3 C431.3,344.4 449.8,351.9 467.2,362.5 C482.5,371.9 496.8,383.4 511.4,394.3 C543.3,418.3 577.6,436.1 615.5,435.4 C664.5,434.5 713.1,418.9 760.4,404.1 C808.4,389 856.5,372.2 905.7,364.9 C995.5,351.5 1083.4,390.2 1171.8,403.6 C1220.3,411 1269.2,408.6 1317.9,405.3 C1369.4,401.8 1420.9,396.4 1472.4,394.6 C1486.7,394.1 1501,393.9 1515.2,394 C1515.5,396 1515.5,398.1 1515.5,400.1 Z" fill="url(#linearGradient-22)"></path>
            <path d="M1515.5,419.1 C1501.1,418.9 1486.6,419 1472.2,419.2 C1419.3,420.1 1366.5,423.6 1313.6,425.8 C1265.7,427.7 1216.9,431.1 1169.4,421.6 C1129.9,413.7 1091.8,398.5 1053,387.1 C1034.1,381.6 1014.9,377 995.5,374.5 C972.9,371.5 950.9,372.1 928.5,376.2 C878,385.3 829.2,405.1 780.4,423 C755.1,432.3 729.7,441.3 704,448.3 C680.8,454.7 657,460 633.2,460.6 C595.6,461.6 562.5,440.6 532.8,413.8 C519.2,401.5 505.8,388.5 491.3,377.9 C474.8,365.9 456.9,357.4 438,353.7 C409.5,348.2 379.5,353.7 351.1,358 C313,363.7 275.1,371.5 237.2,379.3 C195.5,388 153.9,397 112.1,404.8 C75.4,411.6 38.3,417.9 1.1,419.1 C1.1,417 1.1,414.9 1.1,412.8 C37.8,411.7 74.4,405.7 110.7,399.2 C151.7,391.8 192.6,383.2 233.5,374.9 C270.7,367.4 308,360 345.5,354.5 C373.8,350.4 403.5,345.1 431.9,350.4 C450.9,353.9 468.9,362.2 485.6,373.9 C500.3,384.2 513.9,396.8 527.8,408.8 C558,434.9 591.5,455.2 629.1,454.2 C678.8,453 728.2,434.9 775.7,418.1 C824.3,400.9 873,381.8 923.1,373.1 C945.6,369.2 967.8,368.7 990.4,371.5 C1010.3,374 1029.9,378.4 1049.4,383.7 C1089.6,394.7 1129.2,409.3 1170,416.9 C1217.7,425.9 1266.6,422.8 1314.6,420.5 C1367.1,418 1419.6,414 1472.2,412.9 C1486.6,412.6 1501,412.5 1515.4,412.7 C1515.5,414.9 1515.5,417 1515.5,419.1 Z" fill="url(#linearGradient-23)"></path>
            <path d="M1515.5,438.1 C1501,437.9 1486.5,437.9 1472,438 C1418.3,438.4 1364.5,440.6 1310.8,441.9 C1285.1,442.5 1259.4,442.9 1233.7,442.7 C1211.4,442.6 1189.5,441.3 1167.5,436.2 C1131.5,427.8 1097.5,410.8 1062.4,398.4 C1044.9,392.2 1027.1,387.3 1009,384.6 C986.6,381.2 964.8,382.1 942.6,386.4 C891.3,396.5 842,418.4 792.7,438.1 C767.1,448.3 741.4,458.2 715.3,466.1 C692.1,473.1 668.1,478.9 644.1,479.6 C625.2,480.1 605.7,474.4 588.6,464.5 C573.1,455.5 559.3,442.8 546,429.3 C533,416.1 520.3,402.2 506.2,390.7 C490.3,377.8 472.8,368.6 454.1,364.7 C441.3,362 428.7,362.2 415.9,363.2 C399.2,364.6 382.5,366.9 365.8,369.6 C325.9,376.1 286.3,384.8 246.8,393.5 C203.1,403.2 159.4,413.4 115.5,422.1 C77.7,429.6 39.5,436.8 1.2,438.1 C1.2,435.9 1.2,433.7 1.2,431.5 C39.2,430.2 77,423.4 114.5,416.1 C157.7,407.7 200.7,397.9 243.8,388.5 C282.8,380 321.9,371.6 361.2,365.4 C377.7,362.8 394.3,360.5 410.9,359.2 C423.8,358.2 436.4,358 449.1,360.7 C467.9,364.5 485.5,373.5 501.6,386.1 C515.8,397.3 528.7,410.9 541.9,423.8 C555.3,437 569.3,449.4 585,458.2 C602.2,467.8 621.8,473.5 640.8,473 C664.7,472.3 688.6,466.7 711.9,459.9 C737.9,452.3 763.5,442.7 788.9,432.8 C838,413.7 887.2,392.5 938.2,382.7 C960.5,378.4 982.4,377.7 1004.8,380.9 C1023.3,383.6 1041.5,388.4 1059.5,394.4 C1095.8,406.5 1131.2,422.9 1168.3,431.1 C1190.4,436 1212.6,437.3 1235,437.4 C1260.6,437.5 1286.2,437 1311.8,436.3 C1365.3,434.7 1418.7,432.1 1472.2,431.5 C1486.7,431.4 1501.2,431.4 1515.7,431.6 C1515.5,433.7 1515.5,435.9 1515.5,438.1 Z" fill="url(#linearGradient-24)"></path>
            <path d="M1515.5,457.2 C1501,457 1486.4,457 1471.9,457 C1417.5,457.1 1363,458.2 1308.6,458.8 C1282.7,459.1 1256.8,459.2 1230.9,459.1 C1208.9,459 1187.3,458 1165.7,452.4 C1132.4,443.7 1101.8,425.2 1069.6,411.9 C1053.2,405.1 1036.4,399.9 1019.3,397.2 C997,393.6 975.2,394.5 953,399.1 C901.1,409.8 851.3,433.5 801.7,454.6 C775.9,465.6 750,476.2 723.6,484.7 C700.3,492.1 676.2,498.3 652.1,498.9 C633.2,499.4 613.8,493.7 596.9,483.2 C581.6,473.7 568.3,460.3 555.6,446.1 C543.1,432.1 531,417.5 517.3,405.3 C501.9,391.7 484.7,382 466,378 C453.3,375.2 440.6,375.4 427.8,376.5 C410.8,377.9 393.8,380.4 377,383.3 C335.8,390.3 294.8,399.8 253.9,409.3 C208.5,419.9 163.1,430.9 117.6,440.4 C79.2,448.4 40.2,456.3 1.2,457.4 C1.2,455.1 1.2,452.8 1.2,450.5 C40,449.3 78.7,441.7 117,433.8 C162,424.5 206.8,413.8 251.7,403.5 C292.2,394.2 332.7,385 373.5,378.2 C390.3,375.4 407.2,372.9 424.1,371.5 C437,370.4 449.6,370.3 462.3,373 C481,377 498.3,386.5 513.8,399.9 C527.6,411.8 539.9,426.2 552.6,440 C565.5,453.9 578.9,467.2 594.3,476.5 C611.3,486.8 630.7,492.6 649.6,492 C673.7,491.4 697.7,485.3 721,478 C747.3,469.8 773.1,459.3 798.9,448.6 C848.4,428 898,404.9 949.7,394.4 C971.9,389.9 993.7,389 1016,392.5 C1033.4,395.3 1050.5,400.4 1067.3,407 C1100.4,420 1132.2,438 1166.3,446.6 C1188,452.1 1209.7,453.1 1231.8,453.3 C1257.6,453.5 1283.5,453.3 1309.3,452.9 C1363.5,452.1 1417.7,450.6 1471.9,450.4 C1486.4,450.4 1501,450.4 1515.5,450.6 C1515.5,452.6 1515.5,454.9 1515.5,457.2 Z" fill="url(#linearGradient-25)"></path>
            <path d="M1515.5,476.2 C1501,476.1 1486.5,476.1 1472,476.1 C1417.1,476.1 1362.2,476.4 1307.3,476.5 C1281.3,476.6 1255.3,476.6 1229.4,476.5 C1207.4,476.4 1185.6,475.9 1164,469.9 C1132.4,461.2 1104.2,441.5 1074.1,427.6 C1037,410.5 997.7,406.1 958.7,414.1 C906.3,424.9 856.3,450 806.5,472 C780.6,483.5 754.5,494.7 727.9,503.5 C704.6,511.2 680.6,517.3 656.4,517.7 C637.3,518 618.2,512.9 601.2,502 C586,492.2 573,478.3 560.7,463.6 C548.6,449.1 536.9,433.9 523.4,421.3 C508.3,407.2 491.2,397.3 472.5,393.4 C459.9,390.7 447.2,391 434.5,391.9 C417.5,393.2 400.5,395.8 383.6,398.7 C341.5,406 299.6,416 257.9,426 C211.3,437.2 164.8,448.8 118,458.9 C79.5,467.2 40.3,475.5 1.1,476.2 C1.1,473.8 1.1,471.5 1.1,469.1 C40.3,468.2 79.5,460 118,451.8 C164.4,441.9 210.5,430.5 256.7,419.5 C298.2,409.6 339.8,399.9 381.6,392.6 C398.5,389.7 415.5,387.1 432.6,385.8 C445.4,384.8 458,384.6 470.7,387.3 C489.3,391.3 506.5,401.1 521.7,415.1 C535.3,427.6 547.1,442.6 559.3,456.9 C571.7,471.4 584.8,485.2 600,494.9 C616.9,505.7 636.2,511.1 655.1,510.7 C679.2,510.2 703.3,504 726.6,496.4 C753.2,487.7 779.2,476.7 805.1,465.4 C854.8,443.7 904.8,419.1 957,408.2 C996.2,400.1 1035.2,404.8 1072.6,421.5 C1103.4,435.2 1132.3,454.5 1164.4,463.2 C1186,469.1 1207.6,469.8 1229.6,469.9 C1255.6,470 1281.5,470 1307.5,469.9 C1362.2,469.6 1417,469 1471.7,469.1 C1486.2,469.1 1500.8,469.2 1515.3,469.3 C1515.5,471.4 1515.5,473.8 1515.5,476.2 Z" fill="url(#linearGradient-26)"></path>
            <path d="M1515.5,495.2 C1501.1,495.1 1486.8,495.1 1472.4,495 C1417.5,494.7 1362.6,494.4 1307.7,494.6 C1281.5,494.7 1255.3,494.8 1229,495.1 C1206.8,495.4 1185,495.4 1163.2,489.5 C1131.6,480.9 1103.9,460.6 1074,446.3 C1037.1,428.6 997.3,424.5 958.4,432.4 C906,443 856.1,468.6 806.5,491.1 C780.6,502.8 754.6,514.2 728,523.1 C704.7,530.8 680.6,536.8 656.4,537 C637.3,537.1 618.5,532.4 601.5,521.4 C586.2,511.6 573.1,497.5 560.6,482.8 C548.3,468.2 536.4,452.9 522.7,440.2 C507.6,426.1 490.4,416.2 471.8,412.3 C459.2,409.7 446.6,410 433.9,410.9 C416.8,412.2 399.8,414.7 382.9,417.7 C340.9,425 299.2,435 257.5,445.1 C211.1,456.3 164.7,468.1 118.2,478.1 C79.6,486.4 40.4,494.8 1.1,495.3 C1.1,492.8 1.1,490.4 1.1,487.9 C40.2,487.6 79.4,479.1 117.8,470.8 C164.8,460.6 211.6,448.8 258.4,437.4 C300.3,427.3 342.3,417.2 384.6,409.8 C401.4,406.9 418.4,404.3 435.4,403.1 C448,402.2 460.7,401.9 473.3,404.5 C492,408.3 509.1,418.2 524.1,432.5 C537.6,445.2 549.2,460.6 561.3,475.3 C573.5,490.1 586.4,504.2 601.6,514 C618.7,525 637.7,529.7 656.8,529.5 C681,529.3 705,523.3 728.2,515.6 C754.9,506.8 781,495.4 806.9,483.7 C856.7,461.3 906.7,435.8 959.2,425.1 C998,417.2 1037.9,421.2 1074.7,438.8 C1104.3,453 1131.7,473.1 1163,481.7 C1184.8,487.7 1206.7,487.9 1228.9,487.9 C1254.9,487.8 1281,487.8 1307,487.8 C1362,487.8 1417,487.8 1471.9,487.9 C1486.3,487.9 1500.8,487.9 1515.2,487.9 C1515.5,490.3 1515.5,492.7 1515.5,495.2 Z" fill="url(#linearGradient-27)"></path>
        </g>
    </g>
</svg>